{"title":"Chrome Angels (2009) DvdRip Xvid {1337x}-X","uid":6061677,"size":735201280,"categoryP":"video","categoryS":"movies","magnet":"?xt=urn:btih:ee9f6df0700c49aa4d7c3a3a15adf0d8d05eeb72&amp;dn=Chrome+Angels+%282009%29+DvdRip+Xvid+%7B1337x%7D-X&amp;tr=udp%3A%2F%2Ftracker.openbittorrent.com%3A80&amp;tr=udp%3A%2F%2Fopen.demonii.com%3A1337&amp;tr=udp%3A%2F%2Ftracker.coppersurfer.tk%3A6969&amp;tr=udp%3A%2F%2Fexodus.desync.com%3A6969","seeders":0,"leechers":0,"uploader":".BONE.","files":1,"time":1293155793,"description":"Video\nCodec ID/Hint : XviD\nDuration : 1h 33mn\nBit rate : 932 Kbps\nWidth : 640 pixels\nHeight : 352 pixels\nDisplay aspect ratio : 16:9\nFrame rate : 23.976 fps\nColor space : YUV\nChroma subsampling : 4:2:0\nBit depth : 8 bits\nScan type : Progressive\nBits/(Pixel*Frame) : 0.172\nStream size : 623 MiB (89%)\nWriting library : XviD 57\n\n\nAudio\nID : 1\nFormat : MPEG Audio\nFormat version : Version 1\nFormat profile : Layer 3\nMode : Joint stereo\nMode extension : MS Stereo\nCodec ID : 55\nCodec ID/Hint : MP3\nDuration : 1h 33mn\nBit rate mode : Variable\nBit rate : 103 Kbps\nNominal bit rate : 112 Kbps\nChannel(s) : 2 channels\nSampling rate : 48.0 KHz\nStream size : 69.2 MiB (10%)\nAlignment : Aligned on interleaves\nInterleave, duration : 24 ms (0.58 video frame)\nInterleave, preload duration : 178 ms\nWriting library : LAME3.97\n\nTrailer\n[url][/url]\n\nIMDB &lt;a href=&quot;\nhttp://www.imdb.com/title/tt1328910/&quot; rel=&quot;nofollow&quot; target=&quot;_NEW&quot;&gt;\nhttp://www.imdb.com/title/tt1328910/&lt;/a&gt;\n\nShout out to noir and all my friends @ 1337x.org and extratorrent\n\n &lt;a href=&quot;\nhttp://leetleech.org/images/58265539671003858383.png&quot; rel=&quot;nofollow&quot; target=&quot;_NEW&quot;&gt;\nhttp://leetleech.org/images/58265539671003858383.png&lt;/a&gt;\n &lt;a href=&quot;\nhttp://leetleech.org/images/54093341745353448410.png&quot; rel=&quot;nofollow&quot; target=&quot;_NEW&quot;&gt;\nhttp://leetleech.org/images/54093341745353448410.png&lt;/a&gt;\n &lt;a href=&quot;\nhttp://leetleech.org/images/76025001088101744356.png&quot; rel=&quot;nofollow&quot; target=&quot;_NEW&quot;&gt;\nhttp://leetleech.org/images/76025001088101744356.png&lt;/a&gt;","torrent":{"xt":"urn:btih:ee9f6df0700c49aa4d7c3a3a15adf0d8d05eeb72","amp;dn":"Chrome+Angels+%282009%29+DvdRip+Xvid+%7B1337x%7D-X","amp;tr":["udp%3A%2F%2Ftracker.openbittorrent.com%3A80","udp%3A%2F%2Fopen.demonii.com%3A1337","udp%3A%2F%2Ftracker.coppersurfer.tk%3A6969","udp%3A%2F%2Fexodus.desync.com%3A6969"],"infoHash":"ee9f6df0700c49aa4d7c3a3a15adf0d8d05eeb72","infoHashBuffer":{"type":"Buffer","data":[238,159,109,240,112,12,73,170,77,124,58,58,21,173,240,216,208,94,235,114]},"announce":[],"urlList":[]}}